<?xml version="1.0" standalone="no"?>
<!DOCTYPE svg PUBLIC "-//W3C//DTD SVG 20010904//EN"
 "http://www.w3.org/TR/2001/REC-SVG-20010904/DTD/svg10.dtd">
<svg version="1.0" xmlns="http://www.w3.org/2000/svg"
 width="253.000000pt" height="250.000000pt" viewBox="0 0 253.000000 250.000000"
 preserveAspectRatio="xMidYMid meet">
<metadata>
Created by potrace 1.16, written by Peter Selinger 2001-2019
</metadata>
<g transform="translate(0.000000,250.000000) scale(0.100000,-0.100000)"
fill="#000000" stroke="none">
<path d="M675 2128 c-48 -17 -152 -96 -237 -178 -43 -43 -78 -81 -78 -86 -1
-5 -10 -20 -21 -33 -15 -19 -29 -24 -53 -23 -70 5 -109 -59 -171 -277 l-38
-134 6 -164 6 -163 50 -94 c68 -124 197 -251 311 -305 l75 -36 192 -3 191 -4
94 32 c51 17 140 54 197 81 57 27 105 48 106 47 2 -2 -7 -40 -18 -85 -22 -90
-16 -113 27 -113 36 0 45 13 64 95 11 44 27 97 36 119 9 21 16 46 16 56 0 9
19 57 41 106 33 72 45 113 60 213 10 68 20 125 22 128 16 16 85 -64 102 -119
4 -12 18 -43 30 -68 13 -25 46 -112 74 -193 64 -187 202 -531 249 -620 39 -76
127 -171 196 -211 54 -31 177 -47 215 -27 34 19 51 71 51 160 0 71 -2 82 -22
95 -19 13 -25 14 -43 2 -16 -10 -21 -26 -23 -72 -4 -104 -5 -106 -60 -98 -91
13 -181 93 -242 214 -47 94 -170 398 -215 533 -19 56 -39 118 -46 137 -14 42
-76 187 -92 215 -6 11 -19 37 -29 57 -13 27 -33 45 -68 63 -55 28 -55 27 -39
89 7 28 18 47 32 53 12 6 60 29 107 51 82 39 225 98 360 149 36 13 94 26 130
30 91 8 123 39 80 78 -17 15 -31 17 -97 12 -43 -3 -100 -14 -128 -25 -129 -49
-382 -155 -403 -169 -31 -20 -35 -14 -22 38 14 52 28 177 36 307 5 80 3 96
-12 113 -42 46 -70 10 -78 -101 -11 -160 -24 -255 -46 -335 -26 -96 -38 -115
-57 -89 -7 10 -13 25 -13 33 0 29 -145 246 -221 330 -98 109 -202 175 -299
191 -82 13 -246 12 -285 -2z m354 -120 c87 -43 200 -161 288 -299 58 -92 102
-185 92 -193 -2 -2 -60 -31 -129 -65 -69 -34 -134 -67 -145 -74 -187 -116
-349 -224 -365 -244 -48 -62 -29 -113 42 -113 40 0 105 27 126 53 7 8 33 27
59 43 26 16 90 58 142 93 52 35 106 67 120 71 14 5 51 18 81 29 30 12 65 21
77 21 21 0 23 -5 23 -52 0 -28 -7 -79 -16 -112 -8 -34 -19 -77 -24 -96 -5 -19
-12 -46 -16 -59 -3 -14 -27 -47 -53 -74 -51 -55 -184 -128 -331 -181 -83 -30
-88 -31 -270 -31 l-185 0 -59 30 c-93 47 -207 161 -262 261 l-46 84 -1 153
c-2 133 1 162 22 235 21 76 25 81 35 60 13 -26 50 -35 72 -18 7 7 14 28 14 46
0 95 139 288 290 401 98 74 101 75 234 70 109 -5 123 -8 185 -39z"/>
<path d="M157 404 c-40 -41 81 -67 388 -85 83 -4 206 -13 275 -18 69 -6 186
-15 261 -21 410 -29 513 -43 563 -75 43 -28 64 5 26 40 -11 10 -59 26 -107 36
-88 18 -154 24 -603 54 -129 8 -248 18 -265 21 -16 3 -95 10 -175 15 -139 8
-276 22 -330 34 -14 3 -29 3 -33 -1z"/>
</g>
</svg>
